<?xml version="1.0" encoding="UTF-8"?>
<svg version="1.1" xmlns="http://www.w3.org/2000/svg" width="500" height="500">
<path d="M0 0 C9.54315017 0.35542459 17.8669553 2.37847791 27 5 C27.33 11.93 27.66 18.86 28 26 C33.35238209 28.36107799 33.35238209 28.36107799 39 29 C42.13928514 27.30823421 44.70897599 25.56563974 47.40698242 23.26586914 C50.00496257 21.10490943 51.54921236 20.02372567 54.96875 19.84375 C59.06930241 21.40787824 61.59977112 23.81947223 64.6875 26.875 C65.25533203 27.41769531 65.82316406 27.96039063 66.40820312 28.51953125 C67.95221502 30.00018978 69.48079415 31.49394187 71 33 C71.55776123 33.49588623 72.11552246 33.99177246 72.69018555 34.50268555 C74 36 74 36 73.8828125 38.83984375 C72.67791646 43.15294505 70.51279046 46.5264579 68.1796875 50.31640625 C66.76892419 53.52565922 66.85174567 54.72592345 68 58 C68.29519531 58.92167969 68.59039062 59.84335938 68.89453125 60.79296875 C71.46293981 63.48527086 72.26789002 63.35943853 75.88671875 63.48828125 C77.82091459 63.45504764 79.75479669 63.39542126 81.6875 63.3125 C83.16959961 63.27866211 83.16959961 63.27866211 84.68164062 63.24414062 C87.12261559 63.18517988 89.56054868 63.10295048 92 63 C93.15760628 66.0164505 94.29889004 69.03883323 95.4375 72.0625 C95.76298828 72.91005859 96.08847656 73.75761719 96.42382812 74.63085938 C98.2312616 79.45689308 99.50538574 83.86576464 100 89 C98.43902526 90.1063219 96.87614673 91.20995785 95.3125 92.3125 C94.44238281 92.92738281 93.57226562 93.54226562 92.67578125 94.17578125 C85.59957173 99 85.59957173 99 83 99 C83 102.96 83 106.92 83 111 C83.85851562 111.26554687 84.71703125 111.53109375 85.6015625 111.8046875 C89.02910808 113.01023801 92.14173798 114.47244386 95.375 116.125 C96.43460938 116.66382813 97.49421875 117.20265625 98.5859375 117.7578125 C99.38257813 118.16773438 100.17921875 118.57765625 101 119 C101.50307445 127.21688273 100.68016628 139.01312735 96 146 C93.93701172 146.63769531 93.93701172 146.63769531 91.4296875 146.828125 C90.53378906 146.90546875 89.63789063 146.9828125 88.71484375 147.0625 C87.77769531 147.124375 86.84054687 147.18625 85.875 147.25 C84.93011719 147.32734375 83.98523438 147.4046875 83.01171875 147.484375 C80.67526563 147.67317929 78.33885363 147.84428742 76 148 C73.59721787 152.80556426 72.31861222 155.6514475 74 161 C75.55292457 163.67275338 75.55292457 163.67275338 77.5 166.125 C81.596876 171.51474261 81.596876 171.51474261 82 175 C80.99951172 176.76757812 80.99951172 176.76757812 79.4296875 178.53125 C78.8625 179.17707031 78.2953125 179.82289063 77.7109375 180.48828125 C77.10507812 181.15214844 76.49921875 181.81601562 75.875 182.5 C75.29234375 183.16386719 74.7096875 183.82773437 74.109375 184.51171875 C70.96868481 188.03971379 67.81407613 191.17902294 64 194 C62.89140625 193.41089844 61.7828125 192.82179688 60.640625 192.21484375 C59.1774109 191.45509797 57.71385098 190.69601794 56.25 189.9375 C55.52039063 189.54755859 54.79078125 189.15761719 54.0390625 188.75585938 C53.33007812 188.39169922 52.62109375 188.02753906 51.890625 187.65234375 C51.24125977 187.31195068 50.59189453 186.97155762 49.92285156 186.62084961 C46.44591605 185.49821794 44.0120892 186.99467255 40.7734375 188.421875 C37.6611003 191.31503352 37.58071085 191.75077575 37.4140625 195.765625 C37.45382434 197.59466952 37.52521934 199.42324641 37.625 201.25 C37.65207031 202.18585938 37.67914063 203.12171875 37.70703125 204.0859375 C37.77765477 206.3929724 37.87619421 208.69530769 38 211 C19.7383364 219.06317782 19.7383364 219.06317782 12.94921875 218.97265625 C9.81140525 217.4068936 8.49190706 214.50855179 6.8125 211.5625 C6.45736328 210.96373047 6.10222656 210.36496094 5.73632812 209.74804688 C4.42653266 207.52860219 3.15274386 205.30548772 2 203 C-1.96 203 -5.92 203 -10 203 C-10.391875 204.299375 -10.78375 205.59875 -11.1875 206.9375 C-12.85983784 212.00275402 -15.30035644 216.42218288 -18 221 C-21.18986364 220.57874837 -24.37622811 220.13504762 -27.5625 219.6875 C-28.45775391 219.56955078 -29.35300781 219.45160156 -30.27539062 219.33007812 C-31.15517578 219.20439453 -32.03496094 219.07871094 -32.94140625 218.94921875 C-33.74263916 218.83924561 -34.54387207 218.72927246 -35.36938477 218.6159668 C-38 218 -38 218 -45 215 C-45.33 208.4 -45.66 201.8 -46 195 C-47.98 194.34 -49.96 193.68 -52 193 C-52.8146875 192.7009375 -53.629375 192.401875 -54.46875 192.09375 C-58.33488488 191.95055982 -60.61038269 194.20037416 -63.5 196.5 C-69.08715269 200.94638833 -69.08715269 200.94638833 -72.4609375 201.14453125 C-76.23270569 199.4443342 -79.0537966 196.9257203 -82.125 194.1875 C-82.74503906 193.65318359 -83.36507812 193.11886719 -84.00390625 192.56835938 C-90.39349259 186.98262422 -90.39349259 186.98262422 -92 184 C-91.8125 181.9921875 -91.8125 181.9921875 -91 179.875 C-90.70480469 179.10027344 -90.40960938 178.32554687 -90.10546875 177.52734375 C-88.24018767 173.26290256 -86.17341946 169.11489297 -84 165 C-84.3609375 164.51789063 -84.721875 164.03578125 -85.09375 163.5390625 C-85.5578125 162.90742188 -86.021875 162.27578125 -86.5 161.625 C-86.9640625 160.99851562 -87.428125 160.37203125 -87.90625 159.7265625 C-89 158 -89 158 -89 156 C-89.99 156.33 -90.98 156.66 -92 157 C-93.33363703 157.14403348 -94.67218046 157.24590423 -96.01171875 157.31640625 C-97.14770508 157.37924805 -97.14770508 157.37924805 -98.30664062 157.44335938 C-99.09232422 157.48267578 -99.87800781 157.52199219 -100.6875 157.5625 C-101.88342773 157.62727539 -101.88342773 157.62727539 -103.10351562 157.69335938 C-105.06881447 157.79927368 -107.03438496 157.90012551 -109 158 C-113.30907349 149.99743495 -118.45557019 140.28189686 -117 131 C-114.65079583 128.91761145 -112.80005741 127.56754698 -110.125 126.0625 C-109.47402344 125.66482422 -108.82304688 125.26714844 -108.15234375 124.85742188 C-103.38177711 122 -103.38177711 122 -101 122 C-101.495 116.06 -101.495 116.06 -102 110 C-107.61 107.36 -113.22 104.72 -119 102 C-119 92.99550225 -119 92.99550225 -118.16015625 89.3515625 C-117.98419922 88.57425781 -117.80824219 87.79695313 -117.62695312 86.99609375 C-117.44068359 86.21363281 -117.25441406 85.43117188 -117.0625 84.625 C-116.78889648 83.41650391 -116.78889648 83.41650391 -116.50976562 82.18359375 C-115.15865198 76.31730396 -115.15865198 76.31730396 -114 74 C-104.1 73.505 -104.1 73.505 -94 73 C-90.92206509 68.3076882 -90.92206509 68.3076882 -90 63 C-91.59325467 59.39441183 -93.95940431 56.32872981 -96.41552734 53.26733398 C-97.76641563 51.54634866 -98.99829349 49.94593333 -100 48 C-99.12010988 43.3904264 -96.12656021 40.36105222 -93 37 C-92.34 37 -91.68 37 -91 37 C-90.74476562 36.40703125 -90.48953125 35.8140625 -90.2265625 35.203125 C-88.88183502 32.78775462 -87.50785633 31.48788294 -85.375 29.75 C-84.74335937 29.22921875 -84.11171875 28.7084375 -83.4609375 28.171875 C-82.73777344 27.59179688 -82.73777344 27.59179688 -82 27 C-80.6875 27.58333333 -79.375 28.16666667 -78.0625 28.75 C-77.24007812 29.10449219 -76.41765625 29.45898438 -75.5703125 29.82421875 C-73 31 -73 31 -70.6796875 32.33203125 C-66.47374736 34.69132098 -66.47374736 34.69132098 -61.83422852 34.40917969 C-57.51032972 31.98640656 -57.51032972 31.98640656 -55.35717773 27.70678711 C-55.2110189 24.9931821 -55.3008269 22.3974032 -55.5 19.6875 C-55.55414063 18.29047852 -55.55414063 18.29047852 -55.609375 16.86523438 C-55.70343254 14.57258193 -55.83460971 12.28842909 -56 10 C-51.04071266 7.37116531 -46.23082837 5.24504389 -40.8125 3.6875 C-39.64332031 3.34074219 -38.47414063 2.99398437 -37.26953125 2.63671875 C-32.07083309 1.624308 -32.07083309 1.624308 -29 3 C-27.48605616 5.32467384 -26.20976462 7.55308235 -24.9375 10 C-21.94494742 15.29835914 -21.94494742 15.29835914 -16.75 18.1484375 C-13.75278252 18.35343587 -10.98068847 18.35304263 -8 18 C-7.76216797 17.18208984 -7.76216797 17.18208984 -7.51953125 16.34765625 C-5.69131717 10.43878753 -3.17078876 5.30135828 0 0 Z M-43.51171875 80.9609375 C-52.20896399 91.58331866 -55.25120797 103.50259405 -54 117 C-51.45699407 128.66026013 -45.50139748 139.60826172 -36 147 C-23.67799776 154.38335687 -10.39605535 157.54708822 3.71484375 154.08984375 C10.27818283 151.70804859 15.80001521 148.64777402 21 144 C21.60328125 143.49984375 22.2065625 142.9996875 22.828125 142.484375 C30.63413638 135.49290394 35.35411897 124.81179176 36.3359375 114.45703125 C36.47723676 101.27380987 33.39191189 88.8519894 24.1171875 79 C14.35939135 70.12231879 2.95527545 64.58528243 -10.4140625 64.78515625 C-23.70340317 65.88925555 -34.5119139 71.20412456 -43.51171875 80.9609375 Z " fill="#5D7181" transform="translate(189,112)"/>
<path d="M0 0 C1.13566406 -0.00257813 2.27132812 -0.00515625 3.44140625 -0.0078125 C6.4375 0.125 6.4375 0.125 9.4375 1.125 C10.38671875 4.06640625 10.38671875 4.06640625 11.125 7.6875 C11.37636719 8.88503906 11.62773437 10.08257812 11.88671875 11.31640625 C12.06847656 12.24324219 12.25023437 13.17007813 12.4375 14.125 C16.15385471 15.44348614 19.47679461 16.3340082 23.4375 16.125 C26.03336749 14.00663322 27.71200654 11.83602667 29.5859375 9.06640625 C30.19695312 8.42574219 30.80796875 7.78507813 31.4375 7.125 C35.51453238 7.17209443 38.69184532 9.15987521 42.1875 11.125 C43.15171875 11.66125 44.1159375 12.1975 45.109375 12.75 C47.4375 14.125 47.4375 14.125 48.4375 15.125 C48.3515625 16.98046875 48.3515625 16.98046875 48.0625 19.3125 C47.92521484 20.53453125 47.92521484 20.53453125 47.78515625 21.78125 C47.4375 24.125 47.4375 24.125 46.5 27.3125 C46.42962865 30.47921056 46.77851579 31.20184813 48.6875 33.625 C50.99118558 35.71288366 51.96984605 36.14343308 55.11328125 36.01953125 C57.00797818 35.63751522 58.89102796 35.19104546 60.75390625 34.67578125 C63.8758213 34.03503886 65.46707223 33.93492477 68.4375 35.125 C70.18167353 37.24102779 71.50502024 39.1052424 72.875 41.4375 C73.25076172 42.01951172 73.62652344 42.60152344 74.01367188 43.20117188 C76.59825562 47.46694281 76.59825562 47.46694281 75.89453125 50.34765625 C74.31489307 52.27456073 72.63516112 53.69966175 70.6875 55.25 C68.72942454 56.96325009 68.72942454 56.96325009 67.4375 59.125 C67.42186088 62.69593222 68.25676527 65.77171335 69.4375 69.125 C70.02917969 69.31835938 70.62085938 69.51171875 71.23046875 69.7109375 C72.02066406 69.97132813 72.81085938 70.23171875 73.625 70.5 C74.40230469 70.75523437 75.17960938 71.01046875 75.98046875 71.2734375 C78.49494968 72.14491102 80.96662126 73.1366485 83.4375 74.125 C83.4375 80.395 83.4375 86.665 83.4375 93.125 C72.8125 96.125 72.8125 96.125 69.4375 96.125 C68.02584613 99.86378623 67.14949605 103.11351647 67.4375 107.125 C70.27059283 110.82493466 73.63580974 113.46118589 77.4375 116.125 C76.12675635 120.58682436 74.36683989 124.12118757 71.8125 128 C71.18085938 128.96679688 70.54921875 129.93359375 69.8984375 130.9296875 C69.41632813 131.65414062 68.93421875 132.37859375 68.4375 133.125 C63.4375 132.125 58.4375 131.125 53.4375 130.125 C50.87225783 132.19556737 48.91654269 134.15671432 47.4375 137.125 C47.77341142 140.18265524 48.58291729 142.70106751 49.66796875 145.57421875 C50.51257819 148.37386323 50.6833391 149.49550774 49.4375 152.125 C47.51171875 153.7578125 47.51171875 153.7578125 45.125 155.25 C44.34511719 155.74757813 43.56523437 156.24515625 42.76171875 156.7578125 C37.00532334 160.14392744 37.00532334 160.14392744 34.5625 160.0625 C30.79736419 158.40141067 27.62783663 155.62660282 25.078125 152.41015625 C23.45825293 150.84942791 23.45825293 150.84942791 20.95703125 151.26953125 C20.06371094 151.48996094 19.17039062 151.71039063 18.25 151.9375 C17.34894531 152.15019531 16.44789063 152.36289062 15.51953125 152.58203125 C14.83246094 152.76121094 14.14539063 152.94039062 13.4375 153.125 C13.30472656 153.88425781 13.17195313 154.64351562 13.03515625 155.42578125 C12.85855469 156.41964844 12.68195313 157.41351563 12.5 158.4375 C12.23896484 159.91669922 12.23896484 159.91669922 11.97265625 161.42578125 C11.4375 164.125 11.4375 164.125 10.4375 167.125 C7.08100745 168.48981494 3.45442774 168.32613409 -0.125 168.375 C-1.82849609 168.41367187 -1.82849609 168.41367187 -3.56640625 168.453125 C-6.5625 168.125 -6.5625 168.125 -8.359375 166.99609375 C-10.01908555 164.41492052 -10.57572354 161.92358147 -11.25 158.9375 C-11.50136719 157.85082031 -11.75273437 156.76414062 -12.01171875 155.64453125 C-12.19347656 154.81308594 -12.37523437 153.98164063 -12.5625 153.125 C-16.25107721 152.47255464 -19.81188591 151.99803986 -23.5625 152.125 C-26.66864087 154.14708359 -26.66864087 154.14708359 -28.5625 157.125 C-29.160625 157.888125 -29.75875 158.65125 -30.375 159.4375 C-30.766875 159.994375 -31.15875 160.55125 -31.5625 161.125 C-35.60956105 160.52052094 -38.67014545 159.21330359 -42.25 157.25 C-43.20261719 156.73695313 -44.15523438 156.22390625 -45.13671875 155.6953125 C-47.5625 154.125 -47.5625 154.125 -49.5625 151.125 C-48.890625 148.234375 -48.890625 148.234375 -47.8125 144.875 C-46.47288842 140.20220892 -46.47288842 140.20220892 -47.69140625 135.71484375 C-49.21956345 133.98813248 -50.72637737 132.51600199 -52.5625 131.125 C-53.29855469 131.35316406 -54.03460938 131.58132813 -54.79296875 131.81640625 C-55.76878906 132.10386719 -56.74460937 132.39132812 -57.75 132.6875 C-59.19439453 133.12255859 -59.19439453 133.12255859 -60.66796875 133.56640625 C-63.83655008 134.17788686 -65.55206382 134.29049012 -68.5625 133.125 C-70.546875 130.796875 -70.546875 130.796875 -72.3125 127.875 C-73.20195312 126.44414062 -73.20195312 126.44414062 -74.109375 124.984375 C-76.54734115 120.18708676 -76.54734115 120.18708676 -76.5625 117.125 C-74.62109375 115.2734375 -74.62109375 115.2734375 -72 113.5 C-69.41993161 111.56541548 -69.41993161 111.56541548 -67.5625 109.125 C-67.34222915 104.9508673 -68.2921538 102.19010784 -69.5625 98.125 C-74.1825 97.135 -78.8025 96.145 -83.5625 95.125 C-83.5625 88.525 -83.5625 81.925 -83.5625 75.125 C-72.9375 72.125 -72.9375 72.125 -69.5625 72.125 C-68.20419797 64.93170239 -68.20419797 64.93170239 -70.1875 58.1875 C-72.59907118 56.09324082 -75.00680304 54.04177272 -77.5625 52.125 C-76.25175635 47.66317564 -74.49183989 44.12881243 -71.9375 40.25 C-71.30585938 39.28320312 -70.67421875 38.31640625 -70.0234375 37.3203125 C-69.54132813 36.59585938 -69.05921875 35.87140625 -68.5625 35.125 C-67.5725 35.269375 -66.5825 35.41375 -65.5625 35.5625 C-64.92441406 35.645 -64.28632813 35.7275 -63.62890625 35.8125 C-61.5625 36.125 -61.5625 36.125 -59.52734375 36.625 C-57.20406125 37.19546315 -57.20406125 37.19546315 -53.5625 37.125 C-51.03607209 35.37634714 -49.53447288 33.54066678 -47.5625 31.125 C-47.7790625 30.37734375 -47.995625 29.6296875 -48.21875 28.859375 C-48.4971875 27.87453125 -48.775625 26.8896875 -49.0625 25.875 C-49.3409375 24.90046875 -49.619375 23.9259375 -49.90625 22.921875 C-50.5625 20.125 -50.5625 20.125 -50.5625 16.125 C-48.3671875 14.23828125 -48.3671875 14.23828125 -45.4375 12.4375 C-44.48617187 11.83550781 -43.53484375 11.23351562 -42.5546875 10.61328125 C-39.36087791 9.02471538 -37.13967989 8.13465501 -33.5625 8.125 C-31.39453125 10.06640625 -31.39453125 10.06640625 -29.375 12.6875 C-26.146028 16.36672876 -26.146028 16.36672876 -21.5390625 17.28125 C-18.78044226 16.74229078 -16.20488117 16.07823283 -13.5625 15.125 C-13.376875 13.330625 -13.376875 13.330625 -13.1875 11.5 C-12.71223488 7.83459917 -12.13010072 4.50771735 -10.5625 1.125 C-7.15535013 -0.21066673 -3.61561445 -0.00822665 0 0 Z M-22.25 61.375 C-29.79502522 70.34746243 -31.25489835 78.59784965 -30.5625 90.125 C-29.02494078 98.19067081 -23.77135486 104.82319276 -17.1875 109.5 C-9.36454336 114.30609022 -0.73674553 115.56307392 8.23828125 113.47265625 C17.50911075 110.48496154 23.23087913 105.88541507 27.875 97.3125 C31.80504654 88.67928302 32.29564534 81.78586247 29.4375 72.7265625 C26.11431952 64.08110077 20.46847172 58.0269733 12.05078125 53.9765625 C-1.00835598 49.72111868 -12.05262104 52.83765947 -22.25 61.375 Z " fill="#5F7382" transform="translate(346.5625,225.875)"/>
<path d="M0 0 C1.05356689 0.00829834 2.10713379 0.01659668 3.19262695 0.02514648 C11.18223495 0.19844481 17.79074514 1.08012993 25.125 4.4375 C26.19492188 4.911875 27.26484375 5.38625 28.3671875 5.875 C39.96876922 11.55295058 49.86727473 20.03077556 56.125 31.4375 C56.64707031 32.37464844 57.16914063 33.31179687 57.70703125 34.27734375 C65.38824149 48.79875581 68.06991345 64.79133959 63.68603516 80.8840332 C57.75830773 99.81144791 46.91874561 113.93825232 29.3125 123.25 C13.83366831 130.75400427 -4.29132118 132.15793991 -20.671875 126.69140625 C-32.42693415 122.08973066 -43.35901837 115.89376149 -50.875 105.4375 C-50.875 104.7775 -50.875 104.1175 -50.875 103.4375 C-51.535 103.4375 -52.195 103.4375 -52.875 103.4375 C-62.55591582 86.85614103 -68.38777094 69.3697506 -63.875 50 C-57.39336498 30.01244642 -46.74185016 15.68532991 -27.875 5.625 C-18.75610513 1.42939399 -9.99806333 -0.1021606 0 0 Z M-34.38671875 35.3984375 C-43.08396399 46.02081866 -46.12620797 57.94009405 -44.875 71.4375 C-42.33199407 83.09776013 -36.37639748 94.04576172 -26.875 101.4375 C-14.55299776 108.82085687 -1.27105535 111.98458822 12.83984375 108.52734375 C19.40318283 106.14554859 24.92501521 103.08527402 30.125 98.4375 C30.72828125 97.93734375 31.3315625 97.4371875 31.953125 96.921875 C39.75913638 89.93040394 44.47911897 79.24929176 45.4609375 68.89453125 C45.60223676 55.71130987 42.51691189 43.2894894 33.2421875 33.4375 C23.48439135 24.55981879 12.08027545 19.02278243 -1.2890625 19.22265625 C-14.57840317 20.32675555 -25.3869139 25.64162456 -34.38671875 35.3984375 Z " fill="#5F7482" transform="translate(179.875,157.5625)"/>
<path d="M0 0 C9.7282641 7.22671048 17.80704401 19.06248952 20.0859375 31.140625 C21.76737301 48.27833305 19.37445656 61.82386324 8.4609375 75.828125 C-0.74449532 85.94451211 -12.64466368 92.37921172 -26.38671875 93.234375 C-41.56491259 93.6857711 -53.52165381 91.35509656 -65.328125 81.01953125 C-76.97264689 69.47787616 -82.61779347 56.82826896 -82.9140625 40.515625 C-82.8743905 26.49614982 -77.38694702 14.97794247 -67.9765625 4.640625 C-49.20982025 -13.10181163 -20.9712001 -14.30127686 0 0 Z M-53.2265625 19.078125 C-60.77158772 28.05058743 -62.23146085 36.30097465 -61.5390625 47.828125 C-60.00150328 55.89379581 -54.74791736 62.52631776 -48.1640625 67.203125 C-40.34110586 72.00921522 -31.71330803 73.26619892 -22.73828125 71.17578125 C-13.46745175 68.18808654 -7.74568337 63.58854007 -3.1015625 55.015625 C0.82848404 46.38240802 1.31908284 39.48898747 -1.5390625 30.4296875 C-4.86224298 21.78422577 -10.50809078 15.7300983 -18.92578125 11.6796875 C-31.98491848 7.42424368 -43.02918354 10.54078447 -53.2265625 19.078125 Z " fill="#5C7181" transform="translate(377.5390625,268.171875)"/>
<path d="M0 0 C2.24833105 1.69004614 4.38483837 3.44745781 6.5 5.30078125 C7.42232422 6.09935547 7.42232422 6.09935547 8.36328125 6.9140625 C18.68415057 16.50263067 24.94179156 29.99539462 25.703125 44.05078125 C26.02389345 61.18062342 22.5929565 76.61576408 10.9375 89.86328125 C7.64017902 93.27294707 4.36265736 96.54174028 0.5 99.30078125 C-0.49 99.30078125 -1.48 99.30078125 -2.5 99.30078125 C-2.29375 98.78515625 -2.0875 98.26953125 -1.875 97.73828125 C-1.32872119 94.18746901 -2.24607566 91.62368074 -3.5 88.30078125 C-4.985 87.80578125 -4.985 87.80578125 -6.5 87.30078125 C-5.16666667 85.96744792 -3.83333333 84.63411458 -2.5 83.30078125 C-2.37625 82.70265625 -2.2525 82.10453125 -2.125 81.48828125 C-1.5 79.30078125 -1.5 79.30078125 0.25 77.17578125 C8.38971979 66.77502818 10.56297856 55.26649508 9.5 42.30078125 C8.0278374 35.45721457 5.4642555 29.55095325 1.453125 23.82421875 C0.5 22.30078125 0.5 22.30078125 0.5 20.30078125 C-0.985 19.80578125 -0.985 19.80578125 -2.5 19.30078125 C-2.5 18.64078125 -2.5 17.98078125 -2.5 17.30078125 C-3.07363281 17.03136719 -3.64726562 16.76195312 -4.23828125 16.484375 C-6.55109876 15.27404045 -8.56633291 13.88171233 -10.6875 12.36328125 C-15.10327104 9.38063525 -19.36869868 7.65431349 -24.5 6.30078125 C-25.325 6.07390625 -26.15 5.84703125 -27 5.61328125 C-33.47312741 4.80414032 -39.11167381 5.34074942 -45.4140625 6.921875 C-48.27590406 7.44172262 -50.70586639 7.01722576 -53.5 6.30078125 C-53.5 6.96078125 -53.5 7.62078125 -53.5 8.30078125 C-56.875 8.48828125 -56.875 8.48828125 -60.5 8.30078125 C-62.5 5.30078125 -62.5 5.30078125 -62.125 2.61328125 C-61.91875 1.85015625 -61.7125 1.08703125 -61.5 0.30078125 C-62.16 0.30078125 -62.82 0.30078125 -63.5 0.30078125 C-63.83 0.96078125 -64.16 1.62078125 -64.5 2.30078125 C-65.82 2.30078125 -67.14 2.30078125 -68.5 2.30078125 C-66.60175307 -2.83891657 -62.62896449 -4.0822695 -57.9140625 -6.3046875 C-38.48085066 -14.24250973 -17.31394502 -11.76807201 0 0 Z " fill="#5E7382" transform="translate(214.5,172.69921875)"/>
<path d="M0 0 C1.05356689 0.00829834 2.10713379 0.01659668 3.19262695 0.02514648 C11.18223495 0.19844481 17.79074514 1.08012993 25.125 4.4375 C26.19492188 4.911875 27.26484375 5.38625 28.3671875 5.875 C39.96876922 11.55295058 49.86727473 20.03077556 56.125 31.4375 C56.64707031 32.37464844 57.16914063 33.31179687 57.70703125 34.27734375 C65.38824149 48.79875581 68.06991345 64.79133959 63.68603516 80.8840332 C57.75830773 99.81144791 46.91874561 113.93825232 29.3125 123.25 C13.83366831 130.75400427 -4.29132118 132.15793991 -20.671875 126.69140625 C-32.42693415 122.08973066 -43.35901837 115.89376149 -50.875 105.4375 C-50.875 104.7775 -50.875 104.1175 -50.875 103.4375 C-51.535 103.4375 -52.195 103.4375 -52.875 103.4375 C-62.55591582 86.85614103 -68.38777094 69.3697506 -63.875 50 C-57.39336498 30.01244642 -46.74185016 15.68532991 -27.875 5.625 C-18.75610513 1.42939399 -9.99806333 -0.1021606 0 0 Z M-40.875 20.4375 C-41.47828125 20.93507812 -42.0815625 21.43265625 -42.703125 21.9453125 C-53.17721576 31.33424971 -59.25072185 46.20433821 -60.28515625 59.98046875 C-61.11777994 78.17209103 -55.43335817 92.48410903 -44.16015625 106.58203125 C-33.30435543 118.34027029 -18.82653525 124.41815668 -3.07202148 125.07788086 C15.25311583 125.35335025 30.2867148 119.90194958 43.875 107.25 C56.45316649 93.97429654 60.59635503 77.51185865 60.34375 59.70703125 C60.15342982 54.30788576 59.02421804 49.48843764 57.125 44.4375 C56.8465625 43.67308594 56.568125 42.90867188 56.28125 42.12109375 C50.69863339 28.28486724 40.26539063 17.30862029 27.125 10.4375 C3.10941939 0.26897736 -21.01487452 3.11762313 -40.875 20.4375 Z " fill="#99CDC7" transform="translate(179.875,157.5625)"/>
<path d="M0 0 C0.92039062 0.31839844 1.84078125 0.63679688 2.7890625 0.96484375 C10.31978556 3.79601432 16.1103687 7.54206942 22 13 C22.93779297 13.85658203 22.93779297 13.85658203 23.89453125 14.73046875 C33.91284569 24.97493024 38.26758613 38.30020184 38.24658203 52.27392578 C38.01003242 67.51355372 32.90716788 79.67137845 22.40625 90.71484375 C10.52451494 101.99863435 -3.62189107 106.59066407 -19.80078125 106.26953125 C-33.71100206 105.6284927 -46.95093277 98.179515 -56.29296875 88.05078125 C-61.683317 81.57496242 -64.81433708 75.50651913 -67.23828125 67.40625 C-67.77368571 65.07273683 -67.77368571 65.07273683 -69 64 C-70.5787279 46.81473022 -68.75855354 31.96911003 -58 18 C-49.71626499 8.25352368 -40.12111968 2.77574814 -28 -1 C-27.09121094 -1.29390625 -27.09121094 -1.29390625 -26.1640625 -1.59375 C-17.85064816 -3.15439096 -7.94603233 -2.78111132 0 0 Z M-56 19 C-66.11876793 32.4639869 -68.83123006 45.95437759 -66.52734375 62.3671875 C-63.6317615 75.7180757 -55.84686997 87.33089811 -44.75 95.3125 C-43.19076238 96.24964453 -41.60524027 97.14404119 -40 98 C-39.1028125 98.48597656 -38.205625 98.97195313 -37.28125 99.47265625 C-25.48108663 104.93175245 -11.16537504 104.82857263 1.25 101.375 C6.76918379 99.34536467 11.3898758 96.62475414 16 93 C16.67546875 92.51015625 17.3509375 92.0203125 18.046875 91.515625 C26.90241931 84.58221434 33.74496887 73.01825337 36 62 C37.33367581 44.9699858 34.01542553 29.96068433 22.875 16.625 C14.06437562 7.51418399 2.56632209 1.17167369 -10.21875 0.6015625 C-11.97916662 0.59373843 -13.73972154 0.60159896 -15.5 0.625 C-16.37269531 0.61339844 -17.24539063 0.60179687 -18.14453125 0.58984375 C-32.95530177 0.6556694 -46.64114669 7.51872856 -56 19 Z " fill="#74B2AF" transform="translate(362,258)"/>
<path d="M0 0 C0.14695312 0.73863281 0.29390625 1.47726562 0.4453125 2.23828125 C2.42578376 11.19593001 5.93106934 18.39660401 11 26 C10.01 26.33 9.02 26.66 8 27 C1.99763446 19.07687749 -1.2025599 10.75244725 -3 1 C-1 0 -1 0 0 0 Z " fill="#6FACAA" transform="translate(296,317)"/>
<path d="M0 0 C-0.75023437 0.32871094 -1.50046875 0.65742188 -2.2734375 0.99609375 C-12.44227987 5.72191596 -20.17486786 12.12732822 -27 21 C-27.33 20.34 -27.66 19.68 -28 19 C-27.505 17.515 -27.505 17.515 -27 16 C-26.34 15.67 -25.68 15.34 -25 15 C-24.67 14.01 -24.34 13.02 -24 12 C-22 10.66666667 -20 9.33333333 -18 8 C-17.67 7.01 -17.34 6.02 -17 5 C-15 4.0625 -15 4.0625 -12 3 C-9.68963724 1.91372418 -7.38488375 0.81727321 -5.0859375 -0.29296875 C-3 -1 -3 -1 0 0 Z " fill="#4D7A7E" transform="translate(328,260)"/>
<path d="M0 0 C2 3 2 3 1.89453125 4.9921875 C0.68833365 7.69954805 -0.81544171 8.56382771 -3.3125 10.125 C-4.09238281 10.62257813 -4.87226563 11.12015625 -5.67578125 11.6328125 C-11.49760766 15.05741627 -11.49760766 15.05741627 -14.1875 14.75 C-16 14 -16 14 -17 12 C-13.535 11.505 -13.535 11.505 -10 11 C-9.67 10.01 -9.34 9.02 -9 8 C-6.23735711 7.40267181 -3.83967231 7 -1 7 C-1.33 5.35 -1.66 3.7 -2 2 C-1.34 2 -0.68 2 0 2 C0 1.34 0 0.68 0 0 Z " fill="#88949D" transform="translate(395,371)"/>
<path d="M0 0 C0.66 0.66 1.32 1.32 2 2 C1.071875 2.556875 0.14375 3.11375 -0.8125 3.6875 C-4.10096756 6.07325097 -5.09602306 7.50937561 -7 11 C-7.99850006 12.45310171 -9.021175 13.88977403 -10.0625 15.3125 C-10.56910156 16.00988281 -11.07570313 16.70726562 -11.59765625 17.42578125 C-12.29181641 18.20501953 -12.29181641 18.20501953 -13 19 C-13.66 19 -14.32 19 -15 19 C-15 19.66 -15 20.32 -15 21 C-15.66 20.67 -16.32 20.34 -17 20 C-12.63378197 11.92911213 -7.71454488 5.14302992 0 0 Z " fill="#4D787D" transform="translate(317,267)"/>
<path d="M0 0 C-2.27648968 3.13017331 -5.07949417 3.83789294 -8.7578125 4.65136719 C-12.51319755 5.23528377 -16.2088108 5.21041674 -20 5.125 C-21.16208984 5.11146484 -21.16208984 5.11146484 -22.34765625 5.09765625 C-24.23190843 5.07439388 -26.11599832 5.0385364 -28 5 C-28 4.67 -28 4.34 -28 4 C-27.21496094 3.96261719 -26.42992187 3.92523438 -25.62109375 3.88671875 C-18.75205897 3.57963627 -18.75205897 3.57963627 -12.3125 1.4375 C-8.07747525 -0.40034093 -4.54292845 -0.27813848 0 0 Z " fill="#4C757B" transform="translate(367,356)"/>
<path d="M0 0 C4.75 1.875 4.75 1.875 7 3 C7 3.66 7 4.32 7 5 C7.99 5 8.98 5 10 5 C10.33 3.68 10.66 2.36 11 1 C12.32 1.33 13.64 1.66 15 2 C11.535 4.97 11.535 4.97 8 8 C4.7 6.35 1.4 4.7 -2 3 C-1.34 2.34 -0.68 1.68 0 1 C0 0.67 0 0.34 0 0 Z " fill="#8D9AA3" transform="translate(245,298)"/>
<path d="M0 0 C1.231394 2.46278801 1.07159196 4.2795055 1 7 C0.071875 7.12375 0.071875 7.12375 -0.875 7.25 C-3.17972859 7.79394438 -3.17972859 7.79394438 -4.0625 10 C-4.371875 10.66 -4.68125 11.32 -5 12 C-5.99 12.33 -6.98 12.66 -8 13 C-8.33 11.68 -8.66 10.36 -9 9 C-8.51789063 8.60167969 -8.03578125 8.20335937 -7.5390625 7.79296875 C-6.90742188 7.26316406 -6.27578125 6.73335938 -5.625 6.1875 C-4.99851562 5.66542969 -4.37203125 5.14335937 -3.7265625 4.60546875 C-1.7778952 2.91774261 -1.7778952 2.91774261 0 0 Z " fill="#798894" transform="translate(372,326)"/>
<path d="M0 0 C2.125 0.9375 2.125 0.9375 4 2 C3.67 3.32 3.34 4.64 3 6 C4.32 6 5.64 6 7 6 C7 5.34 7 4.68 7 4 C8.32 4.66 9.64 5.32 11 6 C8.7768823 8.05844231 7.56903681 8.97154816 4.5 9.125 C0.6685253 7.40083639 -0.17349381 4.72066076 -2 1 C-1.34 0.67 -0.68 0.34 0 0 Z " fill="#7B8994" transform="translate(112,304)"/>
<path d="M0 0 C0.66 0 1.32 0 2 0 C0.17689912 7.5162931 -2.75813262 13.54796871 -7 20 C-8 17 -8 17 -7.07421875 14.73046875 C-6.61660156 13.89128906 -6.15898437 13.05210937 -5.6875 12.1875 C-3.74752048 8.51174934 -2.22547336 4.98278844 -1 1 C-0.67 0.67 -0.34 0.34 0 0 Z " fill="#53777F" transform="translate(236,238)"/>
<path d="M0 0 C-0.28284018 1.77226453 -0.57660498 3.542788 -0.875 5.3125 C-1.03742188 6.29863281 -1.19984375 7.28476562 -1.3671875 8.30078125 C-2 11 -2 11 -4 14 C-5.85650708 12.14349292 -5.77446617 9.57040621 -6.0703125 7.078125 C-6 5 -6 5 -4.1875 2 C-2 0 -2 0 0 0 Z " fill="#55717B" transform="translate(295,293)"/>
<path d="M0 0 C3.65786455 3.36128094 6.1784694 6.34497737 8 11 C7.67 11.99 7.34 12.98 7 14 C6.01 14 5.02 14 4 14 C4 12.68 4 11.36 4 10 C2.68 10.33 1.36 10.66 0 11 C0.29296875 9.01432292 0.5859375 7.02864583 0.87890625 5.04296875 C1.13904799 2.7974658 1.13904799 2.7974658 0 0 Z " fill="#4F747C" transform="translate(386,278)"/>
<path d="M0 0 C0.33 0 0.66 0 1 0 C1.17015625 0.91523438 1.3403125 1.83046875 1.515625 2.7734375 C1.75796875 3.96195313 2.0003125 5.15046875 2.25 6.375 C2.48203125 7.55835938 2.7140625 8.74171875 2.953125 9.9609375 C3.69286471 13.10186813 3.69286471 13.10186813 6.109375 14.4140625 C6.73328125 14.60742188 7.3571875 14.80078125 8 15 C5.69 15.33 3.38 15.66 1 16 C-0.86665742 12.10281829 -1.13965761 9.45915815 -0.625 5.1875 C-0.51414062 4.21167969 -0.40328125 3.23585937 -0.2890625 2.23046875 C-0.19367188 1.49441406 -0.09828125 0.75835937 0 0 Z " fill="#8A979F" transform="translate(355,227)"/>
<path d="M0 0 C0.33 0.66 0.66 1.32 1 2 C1.66 2 2.32 2 3 2 C3 1.34 3 0.68 3 0 C4.65 0 6.3 0 8 0 C6.8553125 0.8971875 6.8553125 0.8971875 5.6875 1.8125 C3.08664741 3.84004112 3.08664741 3.84004112 1.3125 5.75 C0 7 0 7 -2 7 C-2.33 7.99 -2.66 8.98 -3 10 C-3.66 9.01 -4.32 8.02 -5 7 C-4.67 6.34 -4.34 5.68 -4 5 C-3.34 5.33 -2.68 5.66 -2 6 C-1.855625 5.195625 -1.71125 4.39125 -1.5625 3.5625 C-1 1 -1 1 0 0 Z " fill="#89959F" transform="translate(325,281)"/>
<path d="M0 0 C3.465 1.98 3.465 1.98 7 4 C6.34 5.32 5.68 6.64 5 8 C1.62496331 6.8141763 -0.64722731 5.72426311 -3 3 C-2.01 2.67 -1.02 2.34 0 2 C0 1.34 0 0.68 0 0 Z " fill="#92CBC5" transform="translate(146,272)"/>
<path d="M0 0 C0.66 0.66 1.32 1.32 2 2 C1.5620036 5.17547388 0.21091645 8.04839115 -1 11 C-1.33 11.99 -1.66 12.98 -2 14 C-2.66 14 -3.32 14 -4 14 C-4 14.66 -4 15.32 -4 16 C-5.32 16.33 -6.64 16.66 -8 17 C-7.50628906 16.02417969 -7.01257813 15.04835937 -6.50390625 14.04296875 C-5.85666469 12.75786595 -5.20953512 11.47270675 -4.5625 10.1875 C-4.23701172 9.54490234 -3.91152344 8.90230469 -3.57617188 8.24023438 C-2.20767324 5.51734534 -0.96516735 2.89550206 0 0 Z " fill="#85939D" transform="translate(223,234)"/>
<path d="M0 0 C0.33 0.66 0.66 1.32 1 2 C0.00390625 4.1640625 0.00390625 4.1640625 -1.4375 6.625 C-1.91058594 7.44226563 -2.38367188 8.25953125 -2.87109375 9.1015625 C-3.24363281 9.72804688 -3.61617187 10.35453125 -4 11 C-6.97 10.67 -9.94 10.34 -13 10 C-9 8 -9 8 -5 8 C-4.67 7.01 -4.34 6.02 -4 5 C-3.34 5 -2.68 5 -2 5 C-2.33 3.68 -2.66 2.36 -3 1 C-2.01 0.67 -1.02 0.34 0 0 Z " fill="#949FA9" transform="translate(175,322)"/>
<path d="M0 0 C2.00293347 3.00440021 2.49271626 4.70993945 3.125 8.1875 C3.29257812 9.08855469 3.46015625 9.98960937 3.6328125 10.91796875 C3.75398438 11.60503906 3.87515625 12.29210937 4 13 C2.02 13.99 2.02 13.99 0 15 C0 14.01 0 13.02 0 12 C0.66 12 1.32 12 2 12 C1.67 10.68 1.34 9.36 1 8 C0.01 8 -0.98 8 -2 8 C-2.6875 6.25 -2.6875 6.25 -3 4 C-1.5625 1.75 -1.5625 1.75 0 0 Z " fill="#6C7984" transform="translate(285,188)"/>
<path d="M0 0 C4.29 0 8.58 0 13 0 C12.67 0.99 12.34 1.98 12 3 C11.01 3.33 10.02 3.66 9 4 C8.34 3.67 7.68 3.34 7 3 C4.67085177 2.63858045 2.33746522 2.30300475 0 2 C0 1.34 0 0.68 0 0 Z " fill="#9099A3" transform="translate(340,226)"/>
<path d="M0 0 C2 4 2 4 1.25 6.6875 C0 9 0 9 -2 10 C-4.37402501 10.07116382 -6.75000677 10.08409085 -9.125 10.0625 C-10.40632812 10.05347656 -11.68765625 10.04445312 -13.0078125 10.03515625 C-14.48894531 10.01775391 -14.48894531 10.01775391 -16 10 C-15.67 9.34 -15.34 8.68 -15 8 C-11.04 8.33 -7.08 8.66 -3 9 C-2.01 6.03 -1.02 3.06 0 0 Z " fill="#9AA5AE" transform="translate(184,121)"/>
<path d="M0 0 C5.28 0 10.56 0 16 0 C15.01 1.485 15.01 1.485 14 3 C11.50390625 3.3984375 11.50390625 3.3984375 8.5625 3.375 C7.59441406 3.38273437 6.62632812 3.39046875 5.62890625 3.3984375 C3 3 3 3 0 0 Z " fill="#67A8A2" transform="translate(338,256)"/>
<path d="M0 0 C0.99 0.33 1.98 0.66 3 1 C1.42353449 2.32074115 -0.16145531 3.63131224 -1.75 4.9375 C-2.63171875 5.66839844 -3.5134375 6.39929688 -4.421875 7.15234375 C-6.76330955 8.83037185 -8.19661127 9.58735166 -11 10 C-10.34 8.68 -9.68 7.36 -9 6 C-7.68 6 -6.36 6 -5 6 C-4.731875 5.38125 -4.46375 4.7625 -4.1875 4.125 C-3 2 -3 2 0 0 Z " fill="#4D777C" transform="translate(381,345)"/>
<path d="M0 0 C1.1055189 0.93590504 2.20935453 1.87379858 3.3125 2.8125 C3.92738281 3.33457031 4.54226562 3.85664063 5.17578125 4.39453125 C6.85424679 5.87172469 8.43882034 7.40039131 10 9 C7.69 9.33 5.38 9.66 3 10 C2.814375 9.13375 2.814375 9.13375 2.625 8.25 C2.06807595 5.96658543 2.06807595 5.96658543 0.9375 3.875 C0 2 0 2 0 0 Z " fill="#85919D" transform="translate(146,252)"/>
<path d="M0 0 C0.33 0 0.66 0 1 0 C1.25 5.625 1.25 5.625 -1 9 C-1.45915507 11.96842658 -1.45915507 11.96842658 -1.625 15.1875 C-1.69976562 16.27417969 -1.77453125 17.36085938 -1.8515625 18.48046875 C-1.90054687 19.31191406 -1.94953125 20.14335937 -2 21 C-2.33 21 -2.66 21 -3 21 C-3.31806054 13.2723068 -3.32270836 7.06075526 0 0 Z " fill="#487E80" transform="translate(298,292)"/>
<path d="M0 0 C2.7972908 2.06756277 3.02692273 3.14440371 3.6875 6.6875 C3.790625 7.780625 3.89375 8.87375 4 10 C1.69 8.02 -0.62 6.04 -3 4 C-2.34 3.67 -1.68 3.34 -1 3 C-0.67 2.01 -0.34 1.02 0 0 Z " fill="#83929C" transform="translate(298,355)"/>
<path d="M0 0 C1.03864166 3.11592499 1.09036928 4.0262656 0 7 C-0.99 7.495 -0.99 7.495 -2 8 C-2.4021875 9.2065625 -2.4021875 9.2065625 -2.8125 10.4375 C-4 13 -4 13 -6.57421875 14.16015625 C-7.37472656 14.43730469 -8.17523438 14.71445312 -9 15 C-8.51789063 14.25234375 -8.03578125 13.5046875 -7.5390625 12.734375 C-6.90742188 11.74953125 -6.27578125 10.7646875 -5.625 9.75 C-4.99851562 8.77546875 -4.37203125 7.8009375 -3.7265625 6.796875 C-2.34865148 4.56478385 -1.11687358 2.36912578 0 0 Z " fill="#4D7A7F" transform="translate(395,332)"/>
<path d="M0 0 C2.93774463 -0.05390357 5.87450232 -0.0936255 8.8125 -0.125 C10.06256836 -0.15013672 10.06256836 -0.15013672 11.33789062 -0.17578125 C12.14033203 -0.18222656 12.94277344 -0.18867188 13.76953125 -0.1953125 C14.50792236 -0.20578613 15.24631348 -0.21625977 16.00708008 -0.22705078 C18 0 18 0 21 2 C18.36 2.33 15.72 2.66 13 3 C13 2.34 13 1.68 13 1 C8.71 1 4.42 1 0 1 C0 0.67 0 0.34 0 0 Z " fill="#49767C" transform="translate(339,259)"/>
<path d="M0 0 C0.33 0 0.66 0 1 0 C1 2.31 1 4.62 1 7 C3.64 7.33 6.28 7.66 9 8 C9.33 9.32 9.66 10.64 10 12 C6.51329166 10.8905928 3.22515763 9.73662334 0 8 C0 5.36 0 2.72 0 0 Z " fill="#9CA6B0" transform="translate(70,206)"/>
<path d="M0 0 C0 0.33 0 0.66 0 1 C-2.31 1.33 -4.62 1.66 -7 2 C-7 2.33 -7 2.66 -7 3 C-14.42857143 3.28571429 -14.42857143 3.28571429 -18 1 C-12.03325384 -0.32594359 -6.07416385 -0.0884587 0 0 Z " fill="#65A6A2" transform="translate(352,361)"/>
<path d="M0 0 C0.66 0.99 1.32 1.98 2 3 C0.68 3.99 -0.64 4.98 -2 6 C-1.34 6.66 -0.68 7.32 0 8 C-1.65 8.33 -3.3 8.66 -5 9 C-5.66 8.01 -6.32 7.02 -7 6 C-4.69 4.02 -2.38 2.04 0 0 Z " fill="#87939E" transform="translate(211,254)"/>
<path d="M0 0 C2 3 2 3 1.875 5 C0.74467946 7.5835898 -0.61175724 8.55258015 -3 10 C-3.66 10 -4.32 10 -5 10 C-4.67 9.01 -4.34 8.02 -4 7 C-3.01 7 -2.02 7 -1 7 C-1.33 5.35 -1.66 3.7 -2 2 C-1.34 2 -0.68 2 0 2 C0 1.34 0 0.68 0 0 Z " fill="#929DA6" transform="translate(395,371)"/>
<path d="M0 0 C0.33 0.66 0.66 1.32 1 2 C0.0409375 2.495 0.0409375 2.495 -0.9375 3 C-4.0552764 6.02329832 -3.72043064 8.73656724 -4 13 C-6.97858099 9.66398929 -6.97858099 9.66398929 -7.0625 7.0625 C-5.40648187 3.84787657 -2.85737733 2.18862944 0 0 Z " fill="#B0B6BC" transform="translate(277,337)"/>
<path d="M0 0 C1.65 0.33 3.3 0.66 5 1 C3.60667426 4.36720387 2.0210714 5.9859524 -1 8 C-2 6 -2 6 -1.0625 2.875 C-0.5365625 1.451875 -0.5365625 1.451875 0 0 Z " fill="#7B8791" transform="translate(418,273)"/>
<path d="M0 0 C0.99 0.66 1.98 1.32 3 2 C1.88625 2.309375 1.88625 2.309375 0.75 2.625 C-2.79231177 4.39615589 -4.02446841 6.63427951 -6 10 C-6.99 9.34 -7.98 8.68 -9 8 C-7.87811441 6.85111717 -6.75238316 5.70598863 -5.625 4.5625 C-4.99851562 3.92441406 -4.37203125 3.28632813 -3.7265625 2.62890625 C-2 1 -2 1 0 0 Z " fill="#99A2AA" transform="translate(107,139)"/>
<path d="M0 0 C0.268125 0.639375 0.53625 1.27875 0.8125 1.9375 C1.88667752 4.33131686 1.88667752 4.33131686 5 5 C5 5.66 5 6.32 5 7 C5.99 7 6.98 7 8 7 C8.33 7.99 8.66 8.98 9 10 C5.41087588 10 4.89142971 9.33563446 2.3125 7 C1.68988281 6.443125 1.06726563 5.88625 0.42578125 5.3125 C-0.04472656 4.879375 -0.51523437 4.44625 -1 4 C-0.67 2.68 -0.34 1.36 0 0 Z " fill="#97A2AA" transform="translate(270,274)"/>
<path d="M0 0 C0.99 0.33 1.98 0.66 3 1 C2.2884375 1.61875 2.2884375 1.61875 1.5625 2.25 C-0.15290139 3.87962522 -0.15290139 3.87962522 -0.4375 6.0625 C-1 8 -1 8 -3.0625 9.25 C-3.701875 9.4975 -4.34125 9.745 -5 10 C-3.84414715 6.08788267 -2.64465038 3.1254959 0 0 Z " fill="#838F99" transform="translate(107,276)"/>
<path d="M0 0 C1.32 0.33 2.64 0.66 4 1 C2.02 2.98 0.04 4.96 -2 7 C-2.99 6.67 -3.98 6.34 -5 6 C-3.63016497 2.83884224 -3.0109362 2.0072908 0 0 Z " fill="#51777D" transform="translate(223,260)"/>
<path d="M0 0 C0.66 0 1.32 0 2 0 C2.309375 0.94875 2.61875 1.8975 2.9375 2.875 C3.87394742 5.86080408 3.87394742 5.86080408 5 8 C3.125 7.6875 3.125 7.6875 1 7 C-1 4 -1 4 -0.625 1.8125 C-0.41875 1.214375 -0.2125 0.61625 0 0 Z " fill="#54727D" transform="translate(129,249)"/>
<path d="M0 0 C1.46067199 0.45082469 2.91848032 0.91093537 4.375 1.375 C5.18710937 1.63023437 5.99921875 1.88546875 6.8359375 2.1484375 C9 3 9 3 11 5 C10.01 5.33 9.02 5.66 8 6 C7.34 5.67 6.68 5.34 6 5 C6 4.34 6 3.68 6 3 C5.34 3 4.68 3 4 3 C3.67 3.66 3.34 4.32 3 5 C2.01 4.34 1.02 3.68 0 3 C0 2.01 0 1.02 0 0 Z " fill="#89949E" transform="translate(276,225)"/>
<path d="M0 0 C0.99 0 1.98 0 3 0 C3.33 1.32 3.66 2.64 4 4 C3.4225 4.103125 2.845 4.20625 2.25 4.3125 C-0.32049158 5.09792798 -1.93657284 6.30504197 -4 8 C-2.25 2.25 -2.25 2.25 0 0 Z " fill="#53707A" transform="translate(139,178)"/>
<path d="M0 0 C-0.125 1.75 -0.125 1.75 -1 4 C-4.0625 6.25 -4.0625 6.25 -7 8 C-7 5 -7 5 -4.625 2.3125 C-2 0 -2 0 0 0 Z " fill="#54777E" transform="translate(226,269)"/>
<path d="M0 0 C0.12375 0.639375 0.2475 1.27875 0.375 1.9375 C0.58125 2.618125 0.7875 3.29875 1 4 C1.66 4.33 2.32 4.66 3 5 C-4.47826087 7.60869565 -4.47826087 7.60869565 -8 8 C-8.66 7.34 -9.32 6.68 -10 6 C-6.7 5.34 -3.4 4.68 0 4 C0 2.68 0 1.36 0 0 Z " fill="#97A2AB" transform="translate(333,237)"/>
<path d="M0 0 C0.99 0.33 1.98 0.66 3 1 C2.01 1.495 2.01 1.495 1 2 C0.731875 2.825 0.46375 3.65 0.1875 4.5 C-0.204375 5.325 -0.59625 6.15 -1 7 C-3.625 7.8125 -3.625 7.8125 -6 8 C-4.55746343 4.63408134 -2.66735273 2.48952921 0 0 Z " fill="#9DA7B0" transform="translate(378,233)"/>
<path d="M0 0 C-1.3125 1.5 -1.3125 1.5 -3 3 C-3.99 3 -4.98 3 -6 3 C-6.33 4.32 -6.66 5.64 -7 7 C-7 4.69 -7 2.38 -7 0 C-3.86650268 -1.04449911 -3.01031744 -0.93423645 0 0 Z " fill="#858F98" transform="translate(270,301)"/>
<path d="M0 0 C0.99 0.33 1.98 0.66 3 1 C0.3534665 3.6465335 -2.56221264 4.59941997 -6 6 C-6.33 4.68 -6.66 3.36 -7 2 C-3.98968256 1.06576355 -3.13349732 0.95550089 0 2 C0 1.34 0 0.68 0 0 Z " fill="#88959E" transform="translate(161,179)"/>
<path d="M0 0 C1.98 0 3.96 0 6 0 C4.02 2.31 2.04 4.62 0 7 C-0.99 6.67 -1.98 6.34 -3 6 C-2.34 6 -1.68 6 -1 6 C-0.67 4.02 -0.34 2.04 0 0 Z " fill="#97A1AA" transform="translate(315,380)"/>
<path d="M0 0 C0.66 0.33 1.32 0.66 2 1 C0.625 3 0.625 3 -1 5 C-1.66 5 -2.32 5 -3 5 C-3 6.32 -3 7.64 -3 9 C-2.34 9.33 -1.68 9.66 -1 10 C-1.66 10.99 -2.32 11.98 -3 13 C-4.19334591 9.41996227 -4.33543224 6.75684104 -4 3 C-2 1.0625 -2 1.0625 0 0 Z " fill="#A1A9B2" transform="translate(76,240)"/>
<path d="M0 0 C0.86625 0.556875 0.86625 0.556875 1.75 1.125 C-4 5.125 -4 5.125 -6.25 5.125 C-6.25 3.805 -6.25 2.485 -6.25 1.125 C-2.80384615 -1.09038462 -2.80384615 -1.09038462 0 0 Z " fill="#87939E" transform="translate(283.25,202.875)"/>
<path d="M0 0 C0.66 1.32 1.32 2.64 2 4 C0.68 4 -0.64 4 -2 4 C-2.33 5.32 -2.66 6.64 -3 8 C-3.66 7.01 -4.32 6.02 -5 5 C-4.1875 3.0625 -4.1875 3.0625 -3 1 C-2.01 0.67 -1.02 0.34 0 0 Z M-2 5 C-1.34 5 -0.68 5 0 5 C-0.33 5.66 -0.66 6.32 -1 7 C-1.33 6.34 -1.66 5.68 -2 5 Z " fill="#73828E" transform="translate(166,125)"/>
<path d="M0 0 C-0.66 1.32 -1.32 2.64 -2 4 C-4.97 3.505 -4.97 3.505 -8 3 C-6.14481495 -0.71037009 -3.79223618 -1.26407873 0 0 Z " fill="#50737E" transform="translate(335,355)"/>
<path d="M0 0 C0.33 0 0.66 0 1 0 C1.33 3.63 1.66 7.26 2 11 C1.01 10.34 0.02 9.68 -1 9 C-0.67 6.03 -0.34 3.06 0 0 Z " fill="#6BAAA6" transform="translate(398,295)"/>
<path d="M0 0 C0.99 0.66 1.98 1.32 3 2 C1.68 3.65 0.36 5.3 -1 7 C-1.99 6.67 -2.98 6.34 -4 6 C-2.25 1.125 -2.25 1.125 0 0 Z " fill="#798691" transform="translate(414,280)"/>
<path d="M0 0 C1.37562854 1.28965176 2.70766393 2.62689293 4 4 C4 4.66 4 5.32 4 6 C4.66 6.33 5.32 6.66 6 7 C4.68 7.33 3.36 7.66 2 8 C0.23537317 4.91190305 0 3.76687864 0 0 Z " fill="#56787E" transform="translate(123,255)"/>
<path d="M0 0 C4.455 0.99 4.455 0.99 9 2 C8.01 2.99 7.02 3.98 6 5 C3.9375 4.9375 3.9375 4.9375 2 4 C1.34 2.68 0.68 1.36 0 0 Z " fill="#8E9AA5" transform="translate(118,145)"/>
<path d="M0 0 C0.33 0.99 0.66 1.98 1 3 C0.01 3.33 -0.98 3.66 -2 4 C-2.66 3.67 -3.32 3.34 -4 3 C-4.33 3.99 -4.66 4.98 -5 6 C-6.32 5.67 -7.64 5.34 -9 5 C-7.87926138 4.16094435 -6.75325453 3.32892169 -5.625 2.5 C-4.99851563 2.0359375 -4.37203125 1.571875 -3.7265625 1.09375 C-2 0 -2 0 0 0 Z " fill="#91A0A9" transform="translate(237,136)"/>
<path d="M0 0 C5.94 0.99 5.94 0.99 12 2 C9 4 9 4 6 5 C5.67 4.34 5.34 3.68 5 3 C2.47266765 2.34444881 2.47266765 2.34444881 0 2 C0 1.34 0 0.68 0 0 Z " fill="#929BA5" transform="translate(202,114)"/>
<path d="M0 0 C2.475 0.495 2.475 0.495 5 1 C5 1.99 5 2.98 5 4 C4.01 4.33 3.02 4.66 2 5 C1.34 4.67 0.68 4.34 0 4 C0 2.68 0 1.36 0 0 Z " fill="#81909A" transform="translate(155,114)"/>
<path d="M0 0 C1.32 0.33 2.64 0.66 4 1 C4.103125 1.639375 4.20625 2.27875 4.3125 2.9375 C4.539375 3.618125 4.76625 4.29875 5 5 C5.99 5.33 6.98 5.66 8 6 C8 6.66 8 7.32 8 8 C3.79373966 6.49776416 2.26099979 3.71449966 0 0 Z " fill="#4D777D" transform="translate(304,339)"/>
<path d="M0 0 C0.75 1.5625 0.75 1.5625 1 4 C-0.13084437 6.50286409 -1.52139516 8.67007722 -3 11 C-4.25541557 7.23375329 -3.37061958 5.62811066 -2 2 C-1.34 2 -0.68 2 0 2 C0 1.34 0 0.68 0 0 Z " fill="#4C787D" transform="translate(394,325)"/>
<path d="M0 0 C1.98 0 3.96 0 6 0 C3.14693203 2.32472205 0.45925163 3.7508258 -3 5 C-3 4.01 -3 3.02 -3 2 C-2.34 2.33 -1.68 2.66 -1 3 C-0.67 2.01 -0.34 1.02 0 0 Z " fill="#919FA8" transform="translate(231,296)"/>
<path d="M0 0 C2.8290723 2.8290723 3.37611108 3.38144425 4 7 C3.01 7.66 2.02 8.32 1 9 C0.67 6.03 0.34 3.06 0 0 Z " fill="#949DA5" transform="translate(267,280)"/>
<path d="M0 0 C0.66 0.33 1.32 0.66 2 1 C1.34 3.64 0.68 6.28 0 9 C-0.66 9 -1.32 9 -2 9 C-1.125 2.25 -1.125 2.25 0 0 Z " fill="#8D98A1" transform="translate(261,261)"/>
<path d="M0 0 C-2.97 0.66 -5.94 1.32 -9 2 C-8.67 1.01 -8.34 0.02 -8 -1 C-4.40321889 -2.61235015 -3.79177789 -1.89588895 0 0 Z " fill="#87929B" transform="translate(221,326)"/>
<path d="M0 0 C3 1 3 1 3 1 Z M-3 1 C-2.01 1 -1.02 1 0 1 C0.33 1.66 0.66 2.32 1 3 C1.99 3.33 2.98 3.66 4 4 C4 4.99 4 5.98 4 7 C0.63279613 5.60667426 -0.9859524 4.0210714 -3 1 Z " fill="#A1AAB1" transform="translate(102,297)"/>
<path d="M0 0 C0.66 0.66 1.32 1.32 2 2 C1.74739753 5.78903708 -0.27849443 7.54186593 -3 10 C-2.01 6.7 -1.02 3.4 0 0 Z " fill="#97A0AA" transform="translate(223,234)"/>
<path d="M0 0 C2 3 2 3 1.75 5.0625 C1 7 1 7 -1 9 C-1.625 5.625 -1.625 5.625 -2 2 C-1.34 1.34 -0.68 0.68 0 0 Z " fill="#7D8794" transform="translate(283,182)"/>
<path d="M0 0 C1.98 1.65 3.96 3.3 6 5 C5.01 5.66 4.02 6.32 3 7 C1.68 5.02 0.36 3.04 -1 1 C-0.67 0.67 -0.34 0.34 0 0 Z " fill="#527179" transform="translate(219,177)"/>
<path d="M0 0 C2.31 1.98 4.62 3.96 7 6 C6.01 6.33 5.02 6.66 4 7 C3.67 6.01 3.34 5.02 3 4 C2.01 4 1.02 4 0 4 C0 2.68 0 1.36 0 0 Z " fill="#4B787B" transform="translate(306,346)"/>
<path d="M0 0 C1.70884005 1.62339805 3.37446717 3.29319053 5 5 C5 5.66 5 6.32 5 7 C4.01 7 3.02 7 2 7 C1.01 5.02 0.02 3.04 -1 1 C-0.67 0.67 -0.34 0.34 0 0 Z " fill="#4D757C" transform="translate(299,337)"/>
<path d="M0 0 C0.66 0.33 1.32 0.66 2 1 C0.87548273 3.9719385 -0.22293791 6.33440687 -2 9 C-2.33 6.69 -2.66 4.38 -3 2 C-2.01 1.34 -1.02 0.68 0 0 Z " fill="#A9B1B7" transform="translate(299,240)"/>
<path d="M0 0 C2.29633824 3.44450737 2.54016485 5.93812283 3 10 C1.02 10.99 1.02 10.99 -1 12 C-1 11.01 -1 10.02 -1 9 C-0.34 9 0.32 9 1 9 C0.67 6.03 0.34 3.06 0 0 Z " fill="#AAB4BB" transform="translate(286,191)"/>
<path d="M0 0 C2.36841312 1.57894208 4.06745228 2.9754262 6 5 C5.01 5.99 4.02 6.98 3 8 C1.58622659 5.36095629 0.62759865 2.92879371 0 0 Z " fill="#98A1A9" transform="translate(97,170)"/>
<path d="M0 0 C0.33 0.66 0.66 1.32 1 2 C-0.25 4.5625 -0.25 4.5625 -2 7 C-2.99 7.33 -3.98 7.66 -5 8 C-3.8141763 4.62496331 -2.72426311 2.35277269 0 0 Z " fill="#9DA8B0" transform="translate(94,152)"/>
<path d="M0 0 C2 1 2 1 2 1 Z M-2 1 C-1.34 1 -0.68 1 0 1 C0.6875 3.3125 0.6875 3.3125 1 6 C-0.4375 7.8125 -0.4375 7.8125 -2 9 C-2.79953138 5.71303767 -3.09658936 4.28976808 -2 1 Z " fill="#576C7B" transform="translate(239,135)"/>
<path d="M0 0 C0.33 0.99 0.66 1.98 1 3 C1.66 3.33 2.32 3.66 3 4 C-0.47325181 5.1577506 -3.36067448 5.06866652 -7 5 C-7 4.67 -7 4.34 -7 4 C-5.824375 3.8453125 -5.824375 3.8453125 -4.625 3.6875 C-1.66954819 3.22404978 -1.66954819 3.22404978 0 0 Z " fill="#959FA8" transform="translate(97,264)"/>
<path d="M0 0 C0 0.66 0 1.32 0 2 C-2.31 2.33 -4.62 2.66 -7 3 C-7.33 2.34 -7.66 1.68 -8 1 C-5.10765685 0.17361624 -3.11257569 0 0 0 Z " fill="#4E7A7E" transform="translate(336,260)"/>
<path d="M0 0 C1.1875 1.6875 1.1875 1.6875 2 4 C0.625 6.75 0.625 6.75 -1 9 C-1.66 8.67 -2.32 8.34 -3 8 C-2.5359375 7.13375 -2.5359375 7.13375 -2.0625 6.25 C-1.07416636 4.15705816 -0.4831387 2.25464725 0 0 Z " fill="#939DA8" transform="translate(300,251)"/>
<path d="M0 0 C0.99 0.33 1.98 0.66 3 1 C3 1.66 3 2.32 3 3 C3.66 3.33 4.32 3.66 5 4 C3.35 4.66 1.7 5.32 0 6 C0 4.02 0 2.04 0 0 Z " fill="#556E80" transform="translate(353,241)"/>
<path d="M0 0 C0.66 0.99 1.32 1.98 2 3 C0.35 4.32 -1.3 5.64 -3 7 C-3.33 6.01 -3.66 5.02 -4 4 C-2.68 3.34 -1.36 2.68 0 2 C0 1.34 0 0.68 0 0 Z " fill="#97A0A8" transform="translate(147,188)"/>
<path d="M0 0 C3.3 0.33 6.6 0.66 10 1 C9.01 1.495 9.01 1.495 8 2 C7.67 2.66 7.34 3.32 7 4 C4.69 3.01 2.38 2.02 0 1 C0 0.67 0 0.34 0 0 Z " fill="#597D84" transform="translate(202,161)"/>
<path d="M0 0 C0.99 0 1.98 0 3 0 C1.92598892 2.91517292 1.22189824 4.77810176 -1 7 C-1 3 -1 3 0 0 Z " fill="#929CA4" transform="translate(258,154)"/>
</svg>
